<svg width="345" height="93" viewBox="0 0 345 93" fill="none" xmlns="http://www.w3.org/2000/svg">
<path d="M4.70684 3.61523C2.50113 3.61523 0.67144 5.08122 0.24456 7.04224C0.234335 7.10138 0.22477 7.16078 0.215864 7.22035C0.176481 7.44857 0.150391 7.68113 0.150391 7.92018V85.0798C0.150391 87.4648 2.18267 89.3846 4.70704 89.3846H86.2925C88.8169 89.3846 90.8491 87.4648 90.8491 85.0798V7.92018C90.8491 5.53525 88.8169 3.61523 86.2925 3.61523H50.4622H40.7542C40.5023 3.62278 40.2525 3.63939 40.0133 3.68536C39.7295 3.73995 39.4561 3.82043 39.1956 3.92418C38.9352 4.02792 38.6876 4.15482 38.4562 4.3023C38.2248 4.44977 38.0093 4.6178 37.8127 4.80357C37.616 4.98934 37.4382 5.19292 37.2821 5.41156C37.126 5.63021 36.9917 5.86387 36.8819 6.10996C36.7721 6.35606 36.6869 6.61454 36.6291 6.88265C36.5713 7.15075 36.541 7.42862 36.541 7.71332V16.6226C36.541 16.9073 36.5714 17.185 36.6291 17.4531C36.6869 17.7212 36.7721 17.9797 36.8819 18.2258C36.9917 18.4719 37.126 18.7055 37.2821 18.9242C37.4382 19.1428 37.616 19.3464 37.8127 19.5322C38.0093 19.718 38.2248 19.886 38.4562 20.0335C38.6876 20.1809 38.9352 20.3078 39.1956 20.4116C39.4561 20.5153 39.7295 20.5958 40.0133 20.6504C40.2971 20.705 40.5912 20.7336 40.8926 20.7336H50.3239H69.9622C70.0567 20.7336 70.15 20.7381 70.242 20.7469C70.334 20.7557 70.4245 20.7687 70.5136 20.7859C70.6025 20.803 70.6899 20.8243 70.7754 20.8493C70.861 20.8743 70.9448 20.9032 71.0266 20.9357C71.1082 20.9682 71.1877 21.0044 71.2651 21.044C71.3425 21.0836 71.4176 21.1267 71.4902 21.1729C71.5628 21.2192 71.6328 21.2687 71.7002 21.3212C71.7675 21.3736 71.8323 21.429 71.8939 21.4873C71.9556 21.5456 72.0143 21.6066 72.0698 21.6702C72.1253 21.7339 72.1778 21.8001 72.2267 21.8686C72.2757 21.9372 72.3211 22.0081 72.363 22.0812C72.4049 22.1543 72.4434 22.2296 72.4778 22.3068C72.5122 22.384 72.5428 22.463 72.5693 22.5439C72.5958 22.6247 72.6181 22.7074 72.6362 22.7915C72.6544 22.8755 72.6682 22.9611 72.6775 23.048C72.6867 23.1349 72.6915 23.2231 72.6915 23.3124V69.531C72.6915 69.6202 72.6867 69.7084 72.6775 69.7953C72.6681 69.8822 72.6544 69.9678 72.6362 70.0519C72.618 70.136 72.5958 70.2185 72.5693 70.2993C72.5428 70.3802 72.5122 70.4594 72.4778 70.5366C72.4434 70.6137 72.4049 70.6889 72.363 70.7619C72.3211 70.835 72.2757 70.906 72.2267 70.9746C72.1778 71.0431 72.1253 71.1093 72.0698 71.173C72.0143 71.2366 71.9556 71.2976 71.8939 71.3559C71.8323 71.4141 71.7675 71.4697 71.7002 71.5222C71.6328 71.5746 71.5628 71.6242 71.4902 71.6704C71.4176 71.7167 71.3425 71.7596 71.2651 71.7992C71.1877 71.8388 71.1082 71.8749 71.0266 71.9075C70.9448 71.94 70.861 71.969 70.7754 71.9941C70.6899 72.0191 70.6025 72.0402 70.5136 72.0573C70.4245 72.0745 70.334 72.0875 70.242 72.0963C70.15 72.1051 70.0567 72.1096 69.9622 72.1096H21.0375C20.943 72.1096 20.8497 72.1051 20.7577 72.0963C20.6657 72.0875 20.5749 72.0744 20.486 72.0573C20.397 72.0402 20.3097 72.0191 20.224 71.9941C20.1385 71.969 20.0548 71.94 19.9731 71.9075C19.8915 71.8749 19.8117 71.8388 19.7344 71.7992C19.657 71.7596 19.5819 71.7167 19.5093 71.6704C19.4368 71.6242 19.3667 71.5746 19.2993 71.5222C19.232 71.4697 19.1674 71.4141 19.1057 71.3559C19.0441 71.2976 18.9852 71.2366 18.9297 71.173C18.8742 71.1093 18.8219 71.0431 18.773 70.9746C18.724 70.906 18.6784 70.835 18.6365 70.7619C18.5946 70.6889 18.5563 70.6137 18.5219 70.5366C18.4875 70.4594 18.4569 70.3802 18.4304 70.2993C18.404 70.2185 18.3814 70.136 18.3633 70.0519C18.3455 69.9678 18.3313 69.8822 18.322 69.7953C18.3128 69.7084 18.3079 69.6202 18.3079 69.531V37.8587V23.3124V16.6226V7.71333C18.3079 7.42863 18.2775 7.15076 18.2198 6.88265C18.162 6.61454 18.0768 6.35606 17.967 6.10996C17.8572 5.86388 17.7229 5.63021 17.5668 5.41156C17.4107 5.19292 17.2328 4.98935 17.0362 4.80358C16.8396 4.6178 16.6241 4.44978 16.3927 4.3023C16.1612 4.15483 15.9139 4.02792 15.6535 3.92418C15.393 3.82044 15.1193 3.73995 14.8356 3.68536C14.5964 3.63936 14.3466 3.62278 14.0947 3.61524L4.70684 3.61523ZM37.9177 37.8558C37.0948 37.8558 36.4324 38.4816 36.4324 39.259V53.5841C36.4324 54.3615 37.0948 54.9873 37.9177 54.9873H53.0814C53.9043 54.9873 54.5668 54.3615 54.5668 53.5841V39.259C54.5668 38.4816 53.9043 37.8558 53.0814 37.8558H37.9177Z" fill="white"/>
<path d="M124.301 68.5V24.8636H142.497C145.764 24.8636 148.498 25.3253 150.7 26.2486C152.916 27.1719 154.578 28.4645 155.686 30.1264C156.808 31.7884 157.369 33.7131 157.369 35.9006C157.369 37.5625 157.021 39.0469 156.325 40.3537C155.629 41.6463 154.67 42.7187 153.448 43.571C152.227 44.4233 150.813 45.0199 149.208 45.3608V45.7869C150.97 45.8722 152.596 46.348 154.088 47.2145C155.593 48.081 156.801 49.2884 157.71 50.8366C158.619 52.3707 159.073 54.1889 159.073 56.2912C159.073 58.6349 158.477 60.7301 157.284 62.5767C156.09 64.4091 154.365 65.858 152.106 66.9233C149.847 67.9744 147.106 68.5 143.882 68.5H124.301ZM134.847 59.9986H141.367C143.654 59.9986 145.338 59.5653 146.417 58.6989C147.511 57.8324 148.058 56.625 148.058 55.0767C148.058 53.9545 147.795 52.9886 147.269 52.179C146.744 51.3551 145.998 50.723 145.032 50.2827C144.066 49.8281 142.909 49.6009 141.559 49.6009H134.847V59.9986ZM134.847 42.804H140.686C141.836 42.804 142.859 42.6122 143.754 42.2287C144.649 41.8452 145.345 41.2912 145.842 40.5668C146.353 39.8423 146.609 38.9687 146.609 37.946C146.609 36.483 146.09 35.3324 145.053 34.4943C144.017 33.6562 142.617 33.2372 140.856 33.2372H134.847V42.804ZM174.691 24.8636V68.5H164.144V24.8636H174.691ZM179.885 33.429V24.8636H216.767V33.429H203.535V68.5H193.138V33.429H179.885ZM221.918 68.5V24.8636H239.943C243.21 24.8636 246.03 25.4531 248.402 26.6321C250.789 27.7969 252.628 29.473 253.921 31.6605C255.213 33.8338 255.86 36.4119 255.86 39.3949C255.86 42.4205 255.199 44.9915 253.878 47.108C252.557 49.2102 250.682 50.8153 248.253 51.9233C245.824 53.017 242.948 53.5639 239.624 53.5639H228.225V45.2543H237.664C239.254 45.2543 240.583 45.0483 241.648 44.6364C242.727 44.2102 243.544 43.571 244.098 42.7188C244.652 41.8523 244.929 40.7443 244.929 39.3949C244.929 38.0455 244.652 36.9304 244.098 36.0497C243.544 35.1548 242.727 34.4872 241.648 34.0469C240.568 33.5923 239.24 33.3651 237.664 33.3651H232.465V68.5H221.918ZM246.485 48.5568L257.351 68.5H245.845L235.192 48.5568H246.485ZM272.191 24.8636V68.5H261.644V24.8636H272.191ZM278.812 68.5V24.8636H309.238V33.429H289.359V42.3778H307.683V50.9645H289.359V59.9347H309.238V68.5H278.812ZM315.844 68.5V24.8636H326.39V59.9347H344.544V68.5H315.844Z" fill="white"/>
</svg>
